# xmcd CD database file
#
# Track frame offsets:
#	150
#	10755
#	26560
#	47017
#	65967
#	85275
#	109290
#	128475
#	148252
#	164277
#
# Disc length: 2518 seconds
#
# Revision: 3
# Processed by: cddbd v1.5PL3 Copyright (c) Steve Scherf et al.
# Submitted via: CDex 1.51
#
DISCID=8809d40a
DTITLE=Andy Taylor - Dangerous
DYEAR=1990
DGENRE=Rock
TTITLE0=Don't Believe A Word
TTITLE1=Stone Cold Sober
TTITLE2=Feel Like Making Love
TTITLE3=Lola
TTITLE4=Space Station No.5
TTITLE5=Sympathy For The Devil
TTITLE6=Mustang Sally
TTITLE7=Violence
TTITLE8=Cocaine
TTITLE9=Live Wire
EXTD=YEAR: 1990
EXTT0=
EXTT1=
EXTT2=
EXTT3=
EXTT4=
EXTT5=
EXTT6=
EXTT7=
EXTT8=
EXTT9=
PLAYORDER=
